<svg width="15" height="15" viewBox="0 0 15 15" fill="none" xmlns="http://www.w3.org/2000/svg">
<path d="M13.28 2.26533C12.528 1.51308 11.5309 1.05572 10.4702 0.976429C9.40948 0.897134 8.35552 1.20117 7.5 1.83324C6.59876 1.1629 5.477 0.858938 4.36061 0.98256C3.24423 1.10618 2.21615 1.64821 1.4834 2.49949C0.750652 3.35077 0.367668 4.44807 0.411569 5.57042C0.455471 6.69277 0.922998 7.7568 1.72 8.54824L6.99709 13.8253C7.06293 13.8917 7.14128 13.9444 7.22759 13.9804C7.31391 14.0163 7.40649 14.0348 7.5 14.0348C7.59351 14.0348 7.68609 14.0163 7.77241 13.9804C7.85873 13.9444 7.93707 13.8917 8.00292 13.8253L13.28 8.54824C13.6927 8.1358 14.0201 7.64607 14.2435 7.10704C14.4669 6.56802 14.5818 5.99026 14.5818 5.40678C14.5818 4.82331 14.4669 4.24555 14.2435 3.70652C14.0201 3.1675 13.6927 2.67777 13.28 2.26533ZM12.2813 7.54949L7.5 12.3237L2.71875 7.54949C2.29742 7.1264 2.0104 6.58832 1.89371 6.00273C1.77701 5.41715 1.83584 4.81014 2.0628 4.25786C2.28977 3.70558 2.67476 3.23262 3.1695 2.89831C3.66423 2.564 4.24667 2.38322 4.84375 2.37866C5.64142 2.38061 6.4057 2.69906 6.96875 3.26408C7.0346 3.33047 7.11294 3.38316 7.19926 3.41912C7.28558 3.45508 7.37816 3.4736 7.47167 3.4736C7.56518 3.4736 7.65776 3.45508 7.74408 3.41912C7.83039 3.38316 7.90874 3.33047 7.97459 3.26408C8.55423 2.76178 9.30306 2.49847 10.0695 2.52743C10.836 2.55638 11.5628 2.87545 12.1029 3.42004C12.643 3.96464 12.956 4.69409 12.9786 5.46075C13.0012 6.22742 12.7317 6.97403 12.2246 7.54949H12.2813Z" fill="#2F1AC4"/>
</svg>
