<svg width="15" height="15" viewBox="0 0 15 15" fill="none" xmlns="http://www.w3.org/2000/svg">
<path d="M0.979172 1.3645C0.979172 1.20703 1.04173 1.05601 1.15308 0.944657C1.26443 0.833308 1.41545 0.770752 1.57292 0.770752H2.01467C2.76676 0.770752 3.218 1.27663 3.4753 1.74688C3.64709 2.06038 3.77138 2.42375 3.86876 2.75309C3.89509 2.75101 3.9215 2.74995 3.94792 2.74992H13.8422C14.4993 2.74992 14.9743 3.3785 14.7938 4.01104L13.3466 9.08484C13.2168 9.53993 12.9423 9.94035 12.5646 10.2255C12.187 10.5106 11.7266 10.6649 11.2534 10.665H6.54459C6.0676 10.665 5.60381 10.5084 5.2245 10.2192C4.84519 9.92999 4.57136 9.52422 4.44509 9.06425L3.84342 6.86975L2.84592 3.50675L2.84513 3.50042C2.72163 3.05154 2.60605 2.63117 2.43346 2.31767C2.268 2.01288 2.135 1.95825 2.01546 1.95825H1.57292C1.41545 1.95825 1.26443 1.8957 1.15308 1.78435C1.04173 1.673 0.979172 1.52197 0.979172 1.3645ZM4.9953 6.58159L5.58984 8.74996C5.70859 9.17904 6.09888 9.4775 6.54459 9.4775H11.2534C11.4685 9.4775 11.6778 9.40741 11.8495 9.27785C12.0212 9.14828 12.146 8.9663 12.205 8.75946L13.5801 3.93742H4.21313L4.98421 6.53963L4.9953 6.58159Z" fill="#2F1AC4"/>
<path d="M7.70834 13.0416C7.70834 13.4615 7.54152 13.8642 7.24459 14.1612C6.94766 14.4581 6.54493 14.6249 6.12501 14.6249C5.70508 14.6249 5.30235 14.4581 5.00542 14.1612C4.70849 13.8642 4.54167 13.4615 4.54167 13.0416C4.54167 12.6217 4.70849 12.2189 5.00542 11.922C5.30235 11.6251 5.70508 11.4583 6.12501 11.4583C6.54493 11.4583 6.94766 11.6251 7.24459 11.922C7.54152 12.2189 7.70834 12.6217 7.70834 13.0416ZM6.52084 13.0416C6.52084 12.9366 6.47913 12.8359 6.4049 12.7617C6.33067 12.6875 6.22999 12.6458 6.12501 12.6458C6.02002 12.6458 5.91934 12.6875 5.84511 12.7617C5.77088 12.8359 5.72917 12.9366 5.72917 13.0416C5.72917 13.1466 5.77088 13.2472 5.84511 13.3215C5.91934 13.3957 6.02002 13.4374 6.12501 13.4374C6.22999 13.4374 6.33067 13.3957 6.4049 13.3215C6.47913 13.2472 6.52084 13.1466 6.52084 13.0416Z" fill="#2F1AC4"/>
<path d="M13.25 13.0416C13.25 13.4615 13.0832 13.8642 12.7863 14.1612C12.4893 14.4581 12.0866 14.6249 11.6667 14.6249C11.2468 14.6249 10.844 14.4581 10.5471 14.1612C10.2502 13.8642 10.0833 13.4615 10.0833 13.0416C10.0833 12.6217 10.2502 12.2189 10.5471 11.922C10.844 11.6251 11.2468 11.4583 11.6667 11.4583C12.0866 11.4583 12.4893 11.6251 12.7863 11.922C13.0832 12.2189 13.25 12.6217 13.25 13.0416ZM12.0625 13.0416C12.0625 12.9366 12.0208 12.8359 11.9466 12.7617C11.8723 12.6875 11.7717 12.6458 11.6667 12.6458C11.5617 12.6458 11.461 12.6875 11.3868 12.7617C11.3125 12.8359 11.2708 12.9366 11.2708 13.0416C11.2708 13.1466 11.3125 13.2472 11.3868 13.3215C11.461 13.3957 11.5617 13.4374 11.6667 13.4374C11.7717 13.4374 11.8723 13.3957 11.9466 13.3215C12.0208 13.2472 12.0625 13.1466 12.0625 13.0416Z" fill="#2F1AC4"/>
</svg>
