<svg width="13" height="13" viewBox="0 0 13 13" fill="none" xmlns="http://www.w3.org/2000/svg">
<path d="M8.375 5.24988H6.5V3.37488C6.5 3.20912 6.43415 3.05015 6.31694 2.93294C6.19973 2.81573 6.04076 2.74988 5.875 2.74988C5.70924 2.74988 5.55027 2.81573 5.43306 2.93294C5.31585 3.05015 5.25 3.20912 5.25 3.37488V5.24988H3.375C3.20924 5.24988 3.05027 5.31573 2.93306 5.43294C2.81585 5.55015 2.75 5.70912 2.75 5.87488C2.75 6.04064 2.81585 6.19961 2.93306 6.31682C3.05027 6.43403 3.20924 6.49988 3.375 6.49988H5.25V8.37488C5.25 8.54064 5.31585 8.69961 5.43306 8.81682C5.55027 8.93403 5.70924 8.99988 5.875 8.99988C6.04076 8.99988 6.19973 8.93403 6.31694 8.81682C6.43415 8.69961 6.5 8.54064 6.5 8.37488V6.49988H8.375C8.54076 6.49988 8.69973 6.43403 8.81694 6.31682C8.93415 6.19961 9 6.04064 9 5.87488C9 5.70912 8.93415 5.55015 8.81694 5.43294C8.69973 5.31573 8.54076 5.24988 8.375 5.24988ZM12.5688 11.6811L10.25 9.38113C11.1501 8.25889 11.5859 6.83444 11.468 5.40069C11.3501 3.96694 10.6873 2.63287 9.61595 1.67278C8.54461 0.712695 7.14613 0.199573 5.70808 0.238923C4.27003 0.278274 2.9017 0.867105 1.88446 1.88434C0.867227 2.90158 0.278396 4.2699 0.239045 5.70796C0.199695 7.14601 0.712818 8.54449 1.6729 9.61583C2.63299 10.6872 3.96706 11.35 5.40081 11.4679C6.83456 11.5858 8.25901 11.1499 9.38125 10.2499L11.6813 12.5499C11.7394 12.6085 11.8085 12.655 11.8846 12.6867C11.9608 12.7184 12.0425 12.7348 12.125 12.7348C12.2075 12.7348 12.2892 12.7184 12.3654 12.6867C12.4415 12.655 12.5106 12.6085 12.5688 12.5499C12.6814 12.4333 12.7444 12.2776 12.7444 12.1155C12.7444 11.9534 12.6814 11.7977 12.5688 11.6811ZM5.875 10.2499C5.00971 10.2499 4.16385 9.99329 3.44438 9.51256C2.72492 9.03183 2.16416 8.34855 1.83303 7.54912C1.50189 6.74969 1.41526 5.87003 1.58407 5.02136C1.75288 4.17269 2.16955 3.39314 2.78141 2.78129C3.39326 2.16943 4.17281 1.75275 5.02148 1.58394C5.87015 1.41513 6.74981 1.50177 7.54924 1.83291C8.34867 2.16404 9.03195 2.72479 9.51268 3.44426C9.99341 4.16372 10.25 5.00959 10.25 5.87488C10.25 7.0352 9.78907 8.148 8.96859 8.96847C8.14812 9.78894 7.03532 10.2499 5.875 10.2499Z" fill="#2F1AC4"/>
</svg>
